HIERARCHY
ROOT Hips
{
	OFFSET 0.000000 8.830580 0.000000
	CHANNELS 6 Xposition Yposition Zposition Zrotation Yrotation Xrotation 
	JOINT Spine
	{
		OFFSET 0.000000 0.010000 0.000000
		CHANNELS 3 Zrotation Yrotation Xrotation
		JOINT Spine1
		{
			OFFSET 0.000000 2.459130 0.000000
			CHANNELS 3 Zrotation Yrotation Xrotation
			JOINT Neck
			{
				OFFSET 0.000000 2.484630 0.000000
				CHANNELS 3 Zrotation Yrotation Xrotation
				JOINT Head_virtual
				{
					OFFSET 0.000000 0.000000 0.000000
					CHANNELS 3 Zrotation Yrotation Xrotation
					JOINT Head
					{
						OFFSET 0.000000 0.927525 0.000000
						CHANNELS 3 Zrotation Yrotation Xrotation
						End Site
						{
							OFFSET 0.000000 0.000000 0.000000
						}
					}
				}
				JOINT LeftUpArm_virtual
				{
					OFFSET 0.000000 0.000000 0.000000
					CHANNELS 3 Zrotation Yrotation Xrotation
					JOINT LeftUpArm
					{
						OFFSET 1.248820 0.000000 0.000000
						CHANNELS 3 Zrotation Yrotation Xrotation
						JOINT LeftForeArm
						{
							OFFSET 2.597580 0.000000 0.000000
							CHANNELS 3 Zrotation Yrotation Xrotation
							JOINT LeftHand
							{
								OFFSET 2.455420 0.000000 0.000000
								CHANNELS 3 Zrotation Yrotation Xrotation
								End Site
								{
									OFFSET 0.000000 0.000000 0.000000
								}
							}
						}
					}
				}
				JOINT RightUpArm_virtual
				{
					OFFSET -0.000000 -0.000000 -0.000000
					CHANNELS 3 Zrotation Yrotation Xrotation
					JOINT RightUpArm
					{
						OFFSET -1.248820 -0.000000 -0.000000
						CHANNELS 3 Zrotation Yrotation Xrotation
						JOINT RightForeArm
						{
							OFFSET -2.597580 -0.000000 -0.000000
							CHANNELS 3 Zrotation Yrotation Xrotation
							JOINT RightHand
							{
								OFFSET -2.455420 -0.000000 -0.000000
								CHANNELS 3 Zrotation Yrotation Xrotation
								End Site
								{
									OFFSET 0.000000 0.000000 0.000000
								}
							}
						}
					}
				}
			}
		}
	}
	JOINT LeftUpLeg
	{
		OFFSET 1.271939 0.000000 0.000000
		CHANNELS 3 Zrotation Yrotation Xrotation
		JOINT LeftLowLeg
		{
			OFFSET 0.000000 -4.342910 0.000000
			CHANNELS 3 Zrotation Yrotation Xrotation
			JOINT LeftFoot
			{
				OFFSET 0.000000 -4.487670 0.000000
				CHANNELS 3 Zrotation Yrotation Xrotation
				JOINT LeftToeBase
				{
					OFFSET 0.000000 0.000000 1.515070
					CHANNELS 3 Zrotation Yrotation Xrotation
					End Site
					{
						OFFSET 0.000000 0.000000 0.000000
					}
				}
			}
		}
	}
	JOINT RightUpLeg
	{
		OFFSET -1.271939 0.000000 0.000000
		CHANNELS 3 Zrotation Yrotation Xrotation
		JOINT RightLowLeg
		{
			OFFSET 0.000000 -4.342910 0.000000
			CHANNELS 3 Zrotation Yrotation Xrotation
			JOINT RightFoot
			{
				OFFSET 0.000000 -4.487670 0.000000
				CHANNELS 3 Zrotation Yrotation Xrotation
				JOINT RightToeBase
				{
					OFFSET 0.000000 0.000000 1.515070
					CHANNELS 3 Zrotation Yrotation Xrotation
					End Site
					{
						OFFSET 0.000000 0.000000 0.000000
					}
				}
			}
		}
	}
}
MOTION
Frames: 10
Frame Time: 0.041667
-15.451520 9.078037 38.537134 -179.111415 3.065005 7.504882 -12.462924 -12.703349 157.509644 -26.468003 2.075528 23.745835 0.000000 0.000000 0.000000 21.267121 9.121232 11.059244 -10.825442 -4.340562 -85.739323 -19.748899 -1.815400 4.237080 -41.463600 -9.109870 25.439501 0.000000 -21.308599 0.000000 6.261290 16.406900 -7.740050 44.380600 -2.689420 -0.625125 42.129299 5.711620 19.232100 0.000000 23.349701 0.000000 4.373190 -7.637880 -11.989800 1.838009 9.804328 170.187320 0.000000 0.000000 15.973300 -7.036620 14.643767 -0.123098 0.000000 0.000000 -25.036200 -0.534270 -18.313425 168.595420 0.000000 0.000000 21.454700 21.083472 -11.625244 -4.145074 0.000000 0.000000 -23.013970 
-15.456255 9.077377 38.533749 -179.108236 3.065791 7.426850 -12.811888 -14.214471 158.709049 -27.986099 0.790236 22.443550 0.000000 0.000000 0.000000 22.044727 9.009729 11.971182 -10.955546 -4.111617 -85.766231 -19.122400 -1.531860 5.025620 -41.484798 -9.037070 25.248699 0.000000 -21.275101 0.000000 6.236750 16.540501 -8.008420 45.014400 -3.148260 -0.088334 42.134300 5.549310 19.234900 0.000000 23.289101 0.000000 4.402530 -7.551480 -11.662800 1.884341 9.759069 170.259708 0.000000 0.000000 16.029301 -7.013261 14.609854 -0.147881 0.000000 0.000000 -25.006900 -0.540056 -18.188094 168.672307 0.000000 0.000000 21.501400 21.080205 -11.503502 -4.133472 0.000000 0.000000 -22.991610 
-15.459776 9.078489 38.521908 -179.067381 2.751372 7.434081 -12.998122 -14.549792 158.843987 -28.558163 0.426023 22.198045 0.000000 0.000000 0.000000 22.267237 8.987321 12.082708 -10.954668 -3.966038 -85.716921 -18.827299 -1.451300 5.207910 -41.572601 -8.977170 25.184601 0.000000 -21.268499 0.000000 6.236340 16.459400 -7.762670 45.178902 -3.264800 0.124326 42.210499 5.517920 19.263500 0.000000 23.292299 0.000000 4.433540 -7.667830 -11.744800 1.837205 10.008471 170.287669 0.000000 0.000000 16.035801 -6.975173 14.574358 -0.140728 0.000000 0.000000 -25.010200 -0.630196 -17.946012 168.842185 0.000000 0.000000 21.387899 21.071289 -11.583909 -4.126490 0.000000 0.000000 -23.037160 
-15.461784 9.078318 38.513811 -179.083643 2.738528 7.493402 -12.963305 -14.575969 158.742522 -28.490197 0.641997 22.269972 0.000000 0.000000 0.000000 22.294912 8.883968 11.684201 -10.952323 -3.887597 -85.734743 -18.834600 -1.553330 5.124700 -41.591202 -8.988180 25.228201 0.000000 -21.279499 0.000000 6.299350 16.433100 -7.395930 45.113098 -3.265160 -0.023006 42.287399 5.497100 19.323500 0.000000 23.240000 0.000000 4.458680 -7.591870 -11.760300 1.868417 9.920235 170.306582 0.000000 0.000000 15.970600 -6.937603 14.485270 -0.119189 0.000000 0.000000 -25.037100 -0.594431 -18.015047 168.827019 0.000000 0.000000 21.391800 21.443632 -11.550801 -4.167649 0.000000 0.000000 -23.305360 
-15.462028 9.079232 38.498262 -179.060577 2.451669 7.590640 -12.945488 -14.450272 158.497959 -28.525795 0.635641 22.239542 0.000000 0.000000 0.000000 22.262794 8.913923 11.627376 -10.949315 -3.877745 -85.777296 -18.843599 -1.524390 5.142480 -41.565300 -8.955360 25.259600 0.000000 -21.232500 0.000000 6.349290 16.429399 -7.249590 45.110802 -3.211370 0.107691 42.307499 5.451760 19.367701 0.000000 23.217800 0.000000 4.522840 -7.783440 -11.898300 1.809771 10.115946 170.319018 0.000000 0.000000 15.879800 -6.893163 14.409680 -0.097983 0.000000 0.000000 -25.038600 -0.660409 -17.898308 168.937450 0.000000 0.000000 21.258499 21.416572 -11.724372 -4.222757 0.000000 0.000000 -23.321090 
-15.463810 9.080077 38.483393 -179.034500 2.257977 7.703383 -12.896566 -14.079137 157.988603 -28.218821 1.064615 22.588814 0.000000 0.000000 0.000000 22.080340 8.897412 11.146087 -10.912761 -3.860006 -85.747546 -18.967100 -1.631740 4.943410 -41.570499 -8.990780 25.327700 0.000000 -21.201900 0.000000 6.368350 16.403601 -7.133140 44.924500 -3.135310 -0.031740 42.385799 5.539050 19.565500 0.000000 23.081301 0.000000 4.526820 -7.689900 -12.087200 1.766118 10.274625 170.313406 0.000000 0.000000 15.808100 -6.900264 14.374375 -0.109941 0.000000 0.000000 -25.009400 -0.710115 -17.681645 169.025054 0.000000 0.000000 21.102699 21.214015 -11.821357 -4.220979 0.000000 0.000000 -23.213970 
-15.465519 9.078519 38.485974 -179.098052 2.480292 7.727298 -12.923399 -14.607958 158.447582 -28.581537 0.703485 22.108154 0.000000 0.000000 0.000000 22.171399 8.941408 11.342673 -10.940320 -3.830010 -85.805128 -18.879400 -1.545080 5.092470 -41.518700 -8.997690 25.422300 0.000000 -21.173300 0.000000 6.384470 16.336399 -7.184870 45.052101 -3.163670 0.206802 42.370499 5.556330 19.634501 0.000000 23.012699 0.000000 4.545430 -7.726070 -12.134400 1.865700 10.056578 170.279883 0.000000 0.000000 15.842100 -6.891635 14.367572 -0.117371 0.000000 0.000000 -25.031300 -0.566042 -18.057834 168.800873 0.000000 0.000000 21.398300 21.364132 -11.833117 -4.354203 0.000000 0.000000 -23.247150 
-15.464914 9.077048 38.478047 -179.157344 2.412515 7.721259 -12.889480 -14.880835 158.683659 -28.837120 0.457819 21.785731 0.000000 0.000000 0.000000 22.282957 8.931868 11.437587 -10.961510 -3.780642 -85.820208 -18.753201 -1.523310 5.231940 -41.508801 -9.021300 25.613600 0.000000 -21.142401 0.000000 6.498290 16.236601 -6.841830 45.133801 -3.205650 0.331861 42.404999 5.474110 19.825100 0.000000 22.972601 0.000000 4.507590 -7.676060 -12.069900 1.922890 10.085016 170.307510 0.000000 0.000000 15.878500 -6.902533 14.315658 -0.141803 0.000000 0.000000 -25.022300 -0.541081 -18.079824 168.823166 0.000000 0.000000 21.496700 21.442306 -11.870592 -4.515561 0.000000 0.000000 -23.218080 
-15.464920 9.076297 38.472010 -179.180238 2.347223 7.713425 -12.861806 -14.879255 158.696405 -28.863886 0.407233 21.731276 0.000000 0.000000 0.000000 22.182050 9.046358 11.478018 -10.921648 -3.788522 -85.846016 -18.747700 -1.524190 5.287380 -41.479099 -9.063790 25.689800 0.000000 -21.177799 0.000000 6.555760 16.269300 -6.899950 45.106800 -3.095970 0.380411 42.420502 5.446070 20.018299 0.000000 22.936600 0.000000 4.514920 -7.763990 -12.302700 1.946632 10.099351 170.325010 0.000000 0.000000 15.919700 -6.901130 14.268445 -0.162617 0.000000 0.000000 -25.015500 -0.544844 -18.078493 168.834106 0.000000 0.000000 21.589100 21.432102 -11.935914 -4.589330 0.000000 0.000000 -23.225610 
-15.464838 9.075142 38.468295 -179.215240 2.366376 7.696386 -12.836379 -14.970073 158.769255 -28.891639 0.418711 21.680809 0.000000 0.000000 0.000000 22.166920 9.064374 11.452643 -10.883128 -3.763508 -85.791603 -18.694901 -1.581210 5.294890 -41.497398 -9.075000 25.854000 0.000000 -21.209900 0.000000 6.666540 16.263500 -6.659890 45.076698 -3.132420 0.289401 42.470200 5.415520 20.222401 0.000000 22.917000 0.000000 4.540030 -7.761240 -12.473800 1.993886 10.061842 170.358194 0.000000 0.000000 15.937300 -6.889422 14.254933 -0.179631 0.000000 0.000000 -25.026000 -0.517625 -18.117498 168.793957 0.000000 0.000000 21.747499 21.512246 -11.897255 -4.685159 0.000000 0.000000 -23.216300 
